<?xml version="1.0" encoding="UTF-8" standalone="no"?>
<!DOCTYPE svg PUBLIC "-//W3C//DTD SVG 1.1//EN"
 "http://www.w3.org/Graphics/SVG/1.1/DTD/svg11.dtd">
<!-- Generated by graphviz version 2.47.1 (20210417.1919)
 -->
<!-- Pages: 1 -->
<svg width="852pt" height="404pt"
 viewBox="0.00 0.00 852.36 404.00" xmlns="http://www.w3.org/2000/svg" xmlns:xlink="http://www.w3.org/1999/xlink">
<g id="graph0" class="graph" transform="scale(1 1) rotate(0) translate(4 400)">
<polygon fill="white" stroke="transparent" points="-4,4 -4,-400 848.36,-400 848.36,4 -4,4"/>
<!-- [root] aws_eip.lb (expand) -->
<g id="node1" class="node">
<title>[root] aws_eip.lb (expand)</title>
<polygon fill="none" stroke="black" points="434.18,-180 357.18,-180 357.18,-144 434.18,-144 434.18,-180"/>
<text text-anchor="middle" x="395.68" y="-158.3" font-family="Times New Roman,serif" font-size="14.00">aws_eip.lb</text>
</g>
<!-- [root] aws_instance.myec2 (expand) -->
<g id="node2" class="node">
<title>[root] aws_instance.myec2 (expand)</title>
<polygon fill="none" stroke="black" points="461.18,-108 330.18,-108 330.18,-72 461.18,-72 461.18,-108"/>
<text text-anchor="middle" x="395.68" y="-86.3" font-family="Times New Roman,serif" font-size="14.00">aws_instance.myec2</text>
</g>
<!-- [root] aws_eip.lb (expand)&#45;&gt;[root] aws_instance.myec2 (expand) -->
<g id="edge1" class="edge">
<title>[root] aws_eip.lb (expand)&#45;&gt;[root] aws_instance.myec2 (expand)</title>
<path fill="none" stroke="black" d="M395.68,-143.7C395.68,-135.98 395.68,-126.71 395.68,-118.11"/>
<polygon fill="black" stroke="black" points="399.18,-118.1 395.68,-108.1 392.18,-118.1 399.18,-118.1"/>
</g>
<!-- [root] provider[&quot;registry.terraform.io/hashicorp/aws&quot;] -->
<g id="node4" class="node">
<title>[root] provider[&quot;registry.terraform.io/hashicorp/aws&quot;]</title>
<polygon fill="none" stroke="black" points="395.68,-36 138.46,-18 395.68,0 652.91,-18 395.68,-36"/>
<text text-anchor="middle" x="395.68" y="-14.3" font-family="Times New Roman,serif" font-size="14.00">provider[&quot;registry.terraform.io/hashicorp/aws&quot;]</text>
</g>
<!-- [root] aws_instance.myec2 (expand)&#45;&gt;[root] provider[&quot;registry.terraform.io/hashicorp/aws&quot;] -->
<g id="edge2" class="edge">
<title>[root] aws_instance.myec2 (expand)&#45;&gt;[root] provider[&quot;registry.terraform.io/hashicorp/aws&quot;]</title>
<path fill="none" stroke="black" d="M395.68,-71.7C395.68,-63.98 395.68,-54.71 395.68,-46.11"/>
<polygon fill="black" stroke="black" points="399.18,-46.1 395.68,-36.1 392.18,-46.1 399.18,-46.1"/>
</g>
<!-- [root] aws_security_group.allow_tls (expand) -->
<g id="node3" class="node">
<title>[root] aws_security_group.allow_tls (expand)</title>
<polygon fill="none" stroke="black" points="487.18,-252 304.18,-252 304.18,-216 487.18,-216 487.18,-252"/>
<text text-anchor="middle" x="395.68" y="-230.3" font-family="Times New Roman,serif" font-size="14.00">aws_security_group.allow_tls</text>
</g>
<!-- [root] aws_security_group.allow_tls (expand)&#45;&gt;[root] aws_eip.lb (expand) -->
<g id="edge3" class="edge">
<title>[root] aws_security_group.allow_tls (expand)&#45;&gt;[root] aws_eip.lb (expand)</title>
<path fill="none" stroke="black" d="M395.68,-215.7C395.68,-207.98 395.68,-198.71 395.68,-190.11"/>
<polygon fill="black" stroke="black" points="399.18,-190.1 395.68,-180.1 392.18,-190.1 399.18,-190.1"/>
</g>
<!-- [root] meta.count&#45;boundary (EachMode fixup) -->
<g id="node5" class="node">
<title>[root] meta.count&#45;boundary (EachMode fixup)</title>
<ellipse fill="none" stroke="black" cx="180.68" cy="-306" rx="180.87" ry="18"/>
<text text-anchor="middle" x="180.68" y="-302.3" font-family="Times New Roman,serif" font-size="14.00">[root] meta.count&#45;boundary (EachMode fixup)</text>
</g>
<!-- [root] meta.count&#45;boundary (EachMode fixup)&#45;&gt;[root] aws_security_group.allow_tls (expand) -->
<g id="edge4" class="edge">
<title>[root] meta.count&#45;boundary (EachMode fixup)&#45;&gt;[root] aws_security_group.allow_tls (expand)</title>
<path fill="none" stroke="black" d="M230.82,-288.68C261.41,-278.72 300.76,-265.91 333.34,-255.3"/>
<polygon fill="black" stroke="black" points="334.79,-258.51 343.22,-252.08 332.63,-251.85 334.79,-258.51"/>
</g>
<!-- [root] provider[&quot;registry.terraform.io/hashicorp/aws&quot;] (close) -->
<g id="node6" class="node">
<title>[root] provider[&quot;registry.terraform.io/hashicorp/aws&quot;] (close)</title>
<ellipse fill="none" stroke="black" cx="611.68" cy="-306" rx="232.86" ry="18"/>
<text text-anchor="middle" x="611.68" y="-302.3" font-family="Times New Roman,serif" font-size="14.00">[root] provider[&quot;registry.terraform.io/hashicorp/aws&quot;] (close)</text>
</g>
<!-- [root] provider[&quot;registry.terraform.io/hashicorp/aws&quot;] (close)&#45;&gt;[root] aws_security_group.allow_tls (expand) -->
<g id="edge5" class="edge">
<title>[root] provider[&quot;registry.terraform.io/hashicorp/aws&quot;] (close)&#45;&gt;[root] aws_security_group.allow_tls (expand)</title>
<path fill="none" stroke="black" d="M560.49,-288.41C529.86,-278.48 490.69,-265.79 458.23,-255.27"/>
<polygon fill="black" stroke="black" points="458.98,-251.83 448.38,-252.08 456.82,-258.49 458.98,-251.83"/>
</g>
<!-- [root] root -->
<g id="node7" class="node">
<title>[root] root</title>
<ellipse fill="none" stroke="black" cx="395.68" cy="-378" rx="49.29" ry="18"/>
<text text-anchor="middle" x="395.68" y="-374.3" font-family="Times New Roman,serif" font-size="14.00">[root] root</text>
</g>
<!-- [root] root&#45;&gt;[root] meta.count&#45;boundary (EachMode fixup) -->
<g id="edge6" class="edge">
<title>[root] root&#45;&gt;[root] meta.count&#45;boundary (EachMode fixup)</title>
<path fill="none" stroke="black" d="M360.18,-365.44C327.75,-354.88 279.13,-339.05 240.66,-326.53"/>
<polygon fill="black" stroke="black" points="241.71,-323.19 231.12,-323.42 239.55,-329.85 241.71,-323.19"/>
</g>
<!-- [root] root&#45;&gt;[root] provider[&quot;registry.terraform.io/hashicorp/aws&quot;] (close) -->
<g id="edge7" class="edge">
<title>[root] root&#45;&gt;[root] provider[&quot;registry.terraform.io/hashicorp/aws&quot;] (close)</title>
<path fill="none" stroke="black" d="M431.35,-365.44C463.72,-354.95 512.12,-339.27 550.64,-326.78"/>
<polygon fill="black" stroke="black" points="551.77,-330.1 560.2,-323.68 549.61,-323.44 551.77,-330.1"/>
</g>
</g>
</svg>
